HIERARCHY
ROOT Hips
{
  OFFSET 0 0 0
  CHANNELS 6 Xposition Yposition Zposition Zrotation Yrotation Xrotation
  JOINT LeftThigh
  {
    OFFSET 8.409438 0 -5.917753
    CHANNELS 3 Zrotation Yrotation Xrotation
    JOINT LeftLeg
    {
      OFFSET 0 0 -42.358652
      CHANNELS 3 Zrotation Yrotation Xrotation
      JOINT LeftFoot
      {
        OFFSET 0 0 -39.357303
        CHANNELS 3 Zrotation Yrotation Xrotation
      }
    }
  }
  JOINT RightThigh
  {
    OFFSET -8.409438 0 -5.917753
    CHANNELS 3 Zrotation Yrotation Xrotation
    JOINT RightLeg
    {
      OFFSET 0 0 -42.358652
      CHANNELS 3 Zrotation Yrotation Xrotation
      JOINT RightFoot
      {
        OFFSET 0 0 -39.357303
        CHANNELS 3 Zrotation Yrotation Xrotation
      }
    }
  }
  JOINT SpineLow
  {
    OFFSET 0 0 4.719101
    CHANNELS 3 Zrotation Yrotation Xrotation
    JOINT SpineMid
    {
      OFFSET 0 0 12.899191
      CHANNELS 3 Zrotation Yrotation Xrotation
      JOINT Chest
      {
        OFFSET 0 0 12.899191
        CHANNELS 3 Zrotation Yrotation Xrotation
        JOINT LeftShoulder
        {
          OFFSET 7.550562 1.41573 9.438202
          CHANNELS 3 Zrotation Yrotation Xrotation
          JOINT LeftArm
          {
            OFFSET 9.155056 0 4.247191
            CHANNELS 3 Zrotation Yrotation Xrotation
            JOINT LeftForearm
            {
              OFFSET 0 0 25.771955
              CHANNELS 3 Zrotation Yrotation Xrotation
              JOINT LeftHand
              {
                OFFSET 0 0 25.197169
                CHANNELS 3 Zrotation Yrotation Xrotation
              }
            }
          }
        }
        JOINT RightShoulder
        {
          OFFSET -7.550562 1.41573 9.438202
          CHANNELS 3 Zrotation Yrotation Xrotation
          JOINT RightArm
          {
            OFFSET -9.155056 0 4.247191
            CHANNELS 3 Zrotation Yrotation Xrotation
            JOINT RightForearm
            {
              OFFSET 0 0 -25.771955
              CHANNELS 3 Zrotation Yrotation Xrotation
              JOINT RightHand
              {
                OFFSET 0 0 -25.197169
                CHANNELS 3 Zrotation Yrotation Xrotation
              }
            }
          }
        }
        JOINT Neck
        {
          OFFSET 0 0 15.101124
          CHANNELS 3 Zrotation Yrotation Xrotation
          JOINT Head
          {
            OFFSET 0 0 11.325843
            CHANNELS 3 Zrotation Yrotation Xrotation
            End Site
            {
              OFFSET 0 0 14.157303
            }
          }
        }
      }
    }
  }
}
MOTION
Frames: 16
Frame Time: 0.0
0.0  93.25843  0.0  5.861421  45.176179  -89.424253  14.409324  -14.283146  18.604319  -13.848953  3.887663  11.81845  9.602105  1.822813  2.611092  -23.521766  -3.228256  -36.701054  -6.705709  15.802877  27.055809  -1.606455  -0.15716  3.495217  -0.740504  0.814635  2.245465  -1.947191  2.293014  6.114396  -1.947191  2.293014  6.114396  -19.628641  21.661446  6.947116  126.867353  49.977336  -167.399349  -24.257601  1.503899  73.319402  75.114398  -5.014468  -8.625543  10.420875  -10.44301  11.911276  36.053638  68.394166  -9.730667  -43.60815  -33.909553  -90.03096  60.993955  5.725466  -11.501119  -20.224506  -0.964719  7.175668  -15.159223  -0.962567  5.356661  
0.0  93.25843  0.0  5.607532  45.357974  -89.558763  14.272544  -14.284551  18.628893  -14.504443  3.558437  11.193837  10.152935  1.897006  2.836938  -22.94256  -3.069541  -36.536254  -8.058566  16.016217  26.640685  -1.504323  -0.024059  3.519992  -0.757928  0.796222  2.245084  -1.99648  2.244332  6.113219  -1.99648  2.244332  6.113219  -19.782315  21.551486  6.913358  127.270199  50.598335  -167.149718  -24.602519  1.472828  73.677721  75.140007  -5.044557  -8.586029  10.061292  -10.523961  12.195857  37.776751  67.242187  -8.254829  -42.281214  -33.233204  -92.254036  60.997246  5.509744  -11.834635  -20.332149  -1.211883  7.127524  -15.23692  -1.147883  5.312096  
0.0  93.25843  0.0  5.366534  45.5983  -89.570022  13.974376  -14.275519  18.636156  -14.657267  3.245316  10.676155  10.36579  1.858576  2.898967  -22.512509  -3.215727  -36.460389  -8.960868  16.343984  26.238682  -1.179353  0.001963  3.586169  -0.76503  0.76667  2.230648  -2.019058  2.163868  6.074286  -2.019058  2.163868  6.074286  -20.231963  21.467481  6.803685  127.368863  51.350784  -167.080373  -25.025351  1.338666  74.119126  75.101863  -5.061481  -8.631261  9.393645  -10.597474  12.324068  39.651509  66.160595  -6.672507  -40.664496  -32.818352  -94.473274  61.171838  5.336436  -12.133108  -20.28307  -1.432338  7.119419  -15.197327  -1.312609  5.298662  
0.0  93.25843  0.0  4.803906  44.951939  -90.190212  14.252569  -14.529863  19.063803  -14.777401  2.958858  10.087384  10.797376  1.828941  2.975785  -22.50001  -3.298303  -36.593684  -8.423734  15.807613  26.802497  -1.208312  -0.019228  3.516402  -0.855646  0.785293  2.201663  -2.265908  2.222041  5.991442  -2.265908  2.222041  5.991442  -19.215101  21.255434  7.058243  127.391407  52.124507  -167.060701  -25.553491  1.162234  74.638685  75.043713  -5.033805  -8.792337  10.053554  -10.951883  12.714783  41.697839  65.19406  -4.938714  -39.14034  -32.344499  -96.448534  61.206295  5.155605  -12.509983  -19.571653  -1.594734  7.311509  -14.661257  -1.432313  5.438811  
0.0  93.25843  0.0  4.554822  44.793056  -90.20609  13.897642  -14.387113  19.278089  -14.298175  2.597016  9.588406  10.885792  1.789419  3.007946  -21.968499  -3.656946  -36.654734  -8.403612  15.82322  26.817732  -1.455545  -0.008195  3.522393  -0.831628  0.758165  2.177897  -2.203508  2.145025  5.928089  -2.203508  2.145025  5.928089  -19.828887  21.078833  6.794902  127.48169  52.94557  -166.995312  -26.171887  1.174534  75.134141  75.01888  -5.057348  -8.995253  9.26779  -11.003417  12.703956  44.232702  64.27335  -2.849802  -37.478217  -32.038925  -98.440351  61.516976  5.027117  -12.55854  -19.476405  -1.78284  7.290029  -14.587376  -1.571733  5.41677  
0.0  93.25843  0.0  3.952569  43.624102  -90.820106  14.259366  -14.468275  19.800889  -13.736866  2.220701  9.102932  11.28058  1.796253  3.144959  -21.936835  -3.871331  -36.971446  -8.07147  15.713147  26.966147  -0.66283  -0.253202  4.159605  -0.847848  0.770633  2.144725  -2.247838  2.179417  5.836483  -2.247838  2.179417  5.836484  -19.178271  20.735284  6.856121  127.92879  53.837746  -166.705428  -26.831542  1.492297  75.582065  75.100236  -5.153957  -9.183302  9.835159  -11.324752  12.957868  47.029283  63.441824  -0.422753  -35.962091  -31.69994  -100.368017  62.072245  4.899495  -12.361049  -18.796158  -1.940663  7.453889  -14.074637  -1.687042  5.536386  
0.0  93.25843  0.0  3.744876  43.112516  -90.826693  13.884974  -14.127329  20.108237  -12.987444  1.855682  8.653928  11.44479  1.765088  3.209387  -21.305154  -4.211084  -37.008688  -7.858131  15.605473  27.04632  -1.084826  -0.278592  4.253581  -0.791909  0.757466  2.118462  -2.097033  2.137727  5.766929  -2.097032  2.137727  5.766929  -19.847885  20.434665  6.570456  128.428941  54.856619  -166.214656  -27.440096  1.994618  76.030688  75.344217  -5.292041  -9.331225  9.235822  -11.370538  12.987583  49.989114  62.635511  2.037326  -34.813645  -31.120653  -102.111403  62.974155  4.794414  -12.20627  -18.723846  -2.125426  7.437233  -14.017923  -1.824373  5.518281  
0.0  93.25843  0.0  3.531995  42.593871  -90.96283  13.937645  -14.058107  20.54931  -12.821116  1.494048  8.032239  11.882216  1.854469  3.411771  -22.175127  -4.069798  -37.580759  -6.851967  14.672728  27.970282  -0.859132  -0.339335  4.563779  -0.813235  0.749982  2.079627  -2.15721  2.117906  5.660267  -2.15721  2.117906  5.660266  -20.011275  20.242275  6.50311  128.92928  56.01244  -165.558773  -28.007474  2.368425  76.544765  75.723874  -5.42602  -9.397106  8.826868  -11.327045  13.256878  51.011625  62.266389  3.472099  -32.693244  -31.046372  -104.295604  63.923697  4.691502  -12.33267  -18.513872  -2.20235  7.495526  -13.859206  -1.881303  5.560255  
0.0  93.25843  0.0  3.310328  42.206317  -91.124093  13.674543  -13.953178  21.033825  -12.467794  1.199729  7.5102  12.031747  1.861001  3.446523  -21.92222  -4.369757  -37.502465  -6.921386  14.799862  28.229372  -1.146726  -0.270067  4.634354  -0.816936  0.723217  2.055038  -2.170357  2.044343  5.593708  -2.170357  2.044343  5.593709  -20.510334  20.138872  6.386625  129.178688  57.276457  -164.959946  -28.56176  2.3382  77.184331  76.108735  -5.528152  -9.449602  8.180555  -11.186011  13.539029  54.190332  61.48854  5.726001  -32.480009  -29.745088  -105.480341  64.564324  4.582426  -12.723106  -18.40675  -2.23853  7.550751  -13.778194  -1.9088  5.600914  
0.0  93.25843  0.0  3.108249  41.847866  -91.322581  13.677342  -13.986274  21.544896  -12.481061  0.867126  6.926761  12.4459  1.927321  3.571971  -22.024991  -4.720738  -37.427545  -6.971948  15.096687  28.657749  0.161602  -0.580817  5.35982  -0.86385  0.703033  2.027134  -2.301068  1.992224  5.516574  -2.301068  1.992224  5.516574  -20.906832  20.068857  6.237093  129.37241  58.596707  -164.419062  -29.054377  1.982277  77.969638  76.403482  -5.531754  -9.611673  7.699645  -11.066408  13.809514  57.271745  60.727684  7.903895  -32.42874  -28.383849  -106.513149  64.667642  4.463947  -13.268568  -18.258631  -2.196441  7.639921  -13.667423  -1.878005  5.66959  
0.0  93.25843  0.0  2.948821  41.537256  -91.446887  13.62858  -14.005701  22.115483  -12.193109  0.506106  6.330022  12.419071  1.943203  3.615556  -22.366889  -5.224117  -37.362089  -7.142999  15.540597  29.090574  -0.132676  -0.432201  5.425455  -0.891755  0.675702  1.994935  -2.380506  1.91877  5.428584  -2.380506  1.91877  5.428584  -21.711686  20.027199  5.883853  129.762751  60.035776  -163.847033  -29.509725  1.665642  78.74446  76.568748  -5.507193  -9.86732  7.03422  -10.930835  13.939954  60.292985  59.919881  10.067138  -32.079684  -27.337282  -107.604976  64.615369  4.372044  -13.601775  -18.16842  -2.118535  7.736288  -13.600579  -1.821235  5.74457  
0.0  93.25843  0.0  2.719533  40.626296  -91.827932  14.053147  -14.105636  22.875282  -11.953784  0.133985  5.725697  12.407785  1.969509  3.602899  -22.451774  -5.851838  -37.066315  -7.311257  16.164841  29.569509  0.275088  -0.433428  5.69595  -1.004422  0.694199  1.925125  -2.688973  1.9757  5.23369  -2.688973  1.9757  5.23369  -21.477184  19.905227  5.77952  130.726723  61.641027  -162.945375  -30.043629  1.687552  79.293459  76.64364  -5.476914  -10.15282  7.398695  -10.987625  14.411677  63.176226  59.155139  12.18642  -32.46551  -26.133423  -108.371825  63.580141  3.868448  -14.405738  -17.759159  -1.907392  8.003272  -13.295914  -1.665212  5.952421  
0.0  93.25843  0.0  2.565337  40.106381  -91.81561  14.151044  -14.074544  23.427366  -11.470644  -0.28303  5.070526  12.236236  1.990918  3.62435  -23.009314  -6.664542  -37.046434  -7.78202  17.068257  29.916347  0.413302  -0.19106  5.734585  -1.023189  0.664543  1.860411  -2.74446  1.893542  5.057351  -2.74446  1.893542  5.057351  -22.349209  19.660464  5.28573  132.074872  63.393072  -161.424566  -30.662055  2.104675  79.521334  76.792869  -5.41186  -10.493729  6.722328  -10.933208  14.409541  66.053258  58.305934  14.460253  -31.280151  -25.820788  -109.76475  63.560652  3.745493  -14.225445  -17.641439  -1.803227  8.129128  -13.208823  -1.589081  6.050261  
0.0  93.25843  0.0  2.40793  38.977828  -92.160876  14.493072  -14.031513  24.328109  -10.991431  -0.667611  4.339525  12.368418  1.997157  3.832102  -23.121597  -7.372017  -36.699753  -8.343056  18.065839  30.278921  0.600211  0.055191  5.702554  -1.010179  0.625911  1.830204  -2.712655  1.785821  4.976641  -2.712655  1.785821  4.976641  -22.97188  19.485777  4.807451  133.992629  65.164322  -159.267523  -31.353128  2.738461  79.534792  77.070417  -5.365834  -10.850445  6.248466  -10.730855  14.326393  69.038327  57.365562  16.854756  -29.866647  -25.622375  -111.212628  63.67259  3.616687  -13.790843  -17.539237  -1.529168  8.221192  -13.135943  -1.384575  6.127628  
0.0  93.25843  0.0  2.229256  38.198895  -92.188864  14.583919  -13.892806  25.09056  -10.217685  -1.051343  3.605907  12.244631  1.946116  3.863623  -23.523765  -8.211371  -36.641865  -8.800295  19.068953  30.732685  0.882972  0.289258  5.613971  -1.071012  0.562228  1.729999  -2.886098  1.612134  4.70367  -2.886098  1.612134  4.70367  -23.371134  19.397182  4.429815  135.596986  66.800091  -157.172859  -32.236088  3.245122  79.543734  77.326255  -5.401347  -11.074874  5.961002  -10.41091  14.238102  72.045557  56.32243  19.216205  -28.724529  -25.326694  -112.407677  64.011861  3.505723  -13.263724  -17.182026  -1.211791  8.399879  -12.87231  -1.146447  6.271493  
0.0  93.25843  0.0  1.932535  36.627651  -92.668596  15.237233  -13.870934  26.166716  -9.055474  -1.432021  3.015126  12.040893  1.883031  3.895067  -23.281998  -8.994286  -36.21404  -9.807588  20.361217  30.618329  1.988948  0.553525  5.903796  -1.030603  0.486524  1.660489  -2.782507  1.399605  4.51772  -2.782507  1.399605  4.51772  -23.730742  19.371538  4.14878  136.939621  68.295124  -155.36431  -33.244  3.487854  79.714463  77.600636  -5.453647  -11.219556  5.788549  -10.049833  14.112132  75.047293  55.153227  21.538574  -27.898899  -24.903844  -113.31909  64.343382  3.384916  -12.911302  -16.838511  -0.758968  8.652176  -12.62099  -0.808657  6.473969  
